<svg xmlns="http://www.w3.org/2000/svg" viewBox="0 0 370.76 512"><defs><style>.cls-1{fill:#f22f76;}.cls-2{fill:#049aba;}</style></defs><title>Asset 2</title><g id="Layer_2" data-name="Layer 2"><g id="Capa_1" data-name="Capa 1"><path class="cls-1" d="M44.14,229.52v35.31a35.3,35.3,0,0,0,35.31,35.31h31.78a193.07,193.07,0,0,1-8.12-17.65H79.45a17.71,17.71,0,0,1-17.65-17.65V229.52H79.45V158.9H61.79V141.24a123.59,123.59,0,0,1,247.17,0V158.9H291.31v70.62h35.31a8.86,8.86,0,0,0,8.83-8.83v-53a8.86,8.86,0,0,0-8.83-8.83V141.24a141.24,141.24,0,0,0-282.48,0V158.9a8.86,8.86,0,0,0-8.83,8.83v53A8.85,8.85,0,0,0,44.14,229.52Z"/><path class="cls-2" d="M370.76,494a61.83,61.83,0,0,0-34.25-55.53l-76-42.28a40.64,40.64,0,0,1-22.16-36.46V338.45A17.1,17.1,0,0,1,242,327.86a211.26,211.26,0,0,0,12.89-19.42c.79-1.24,1.59-2.65,2.38-4.06s1.5-2.83,2.3-4.24a193.07,193.07,0,0,0,8.12-17.65,128.7,128.7,0,0,0,6-18.71V141.24a5,5,0,0,1,.09-1.15,62.4,62.4,0,0,0-14.3-44.49c-14.65-16.6-39.55-25-74.06-25s-59.59,8.47-74.24,25.16A61.61,61.61,0,0,0,97,140.1a5,5,0,0,1,.09,1.15V263.77a140.61,140.61,0,0,0,6.09,18.71h48.55a26.37,26.37,0,0,1,24.81-17.65H203a26.49,26.49,0,0,1,24.89,17.65,25.31,25.31,0,0,1,0,17.65,20.3,20.3,0,0,1-1.59,3.8,23.48,23.48,0,0,1-1.85,2.91A26.66,26.66,0,0,1,203,317.79H176.55a26.73,26.73,0,0,1-22-11.65,25.15,25.15,0,0,1-2.91-6H111.32c1.5,2.91,3.09,5.74,4.59,8.3a184,184,0,0,0,12.89,19.42,17.09,17.09,0,0,1,3.62,10.59v20.39a40.83,40.83,0,0,1-21.45,36l-78.65,43A61.64,61.64,0,0,0,0,492.23V512H370.76Z"/></g></g></svg>